<svg xmlns="http://www.w3.org/2000/svg" xmlns:xlink="http://www.w3.org/1999/xlink" viewBox="0 0 400.13 453.53"><defs><style>.cls-1{fill:#003e6d;}.cls-2{fill:#c7b299;}.cls-3{fill:url(#linear-gradient);}.cls-4{fill:#fff;}.cls-5{opacity:0.2;}.cls-6{fill:url(#linear-gradient-2);}</style><linearGradient id="linear-gradient" x1="67.78" y1="100.14" x2="421.53" y2="453.9" gradientUnits="userSpaceOnUse"><stop offset="0" stop-color="#0089ff"/><stop offset="1" stop-color="#3956e0"/></linearGradient><linearGradient id="linear-gradient-2" x1="160.66" y1="169.82" x2="317.84" y2="442.07" gradientUnits="userSpaceOnUse"><stop offset="0.5" stop-color="#fff"/><stop offset="0.63" stop-color="#c6d5ff"/><stop offset="0.94" stop-color="#396cff"/><stop offset="1" stop-color="#1a55ff"/></linearGradient></defs><title>logo</title><g id="Layer_1" data-name="Layer 1"><path class="cls-1" d="M411.7,106.71s33,5,33,16.56v9.07c-47.81,16-162.21,44.53-162.21,44.53L47.63,131l-3-7.7s-4.95-16.21,46.78-16.21Z" transform="translate(-44.53 -23.23)"/><rect class="cls-2" x="61.01" y="80.72" width="122.5" height="122.5" rx="61.25" ry="61.25" transform="translate(199.99 260.69) rotate(-180)"/><rect class="cls-2" x="348.18" y="76.46" width="82.41" height="82.41" rx="41.21" ry="41.21" transform="translate(734.24 212.09) rotate(-180)"/><path class="cls-2" d="M115.81,34.75H223.63a0,0,0,0,1,0,0v78.87a53.91,53.91,0,0,1-53.91,53.91h0a53.91,53.91,0,0,1-53.91-53.91V34.75a0,0,0,0,1,0,0Z" transform="translate(294.92 179.06) rotate(180)"/><path class="cls-2" d="M200,46.55h82.41a12.7,12.7,0,0,1,12.7,12.7V123a53.91,53.91,0,0,1-53.91,53.91h0A53.91,53.91,0,0,1,187.33,123V59.26A12.7,12.7,0,0,1,200,46.55Z" transform="translate(437.96 200.19) rotate(-180)"/><path class="cls-2" d="M260.79,23.23h121a0,0,0,0,1,0,0v95.33a60.49,60.49,0,0,1-60.49,60.49h0a60.49,60.49,0,0,1-60.49-60.49V23.23A0,0,0,0,1,260.79,23.23Z" transform="translate(598.03 179.06) rotate(-180)"/><path class="cls-3" d="M361.16,476.77h-233c-45.93,0-83.5-33.21-83.5-73.8V123.27s0,14.49,200,14.49,200-14.49,200-14.49V403C444.66,443.56,407.08,476.77,361.16,476.77Z" transform="translate(-44.53 -23.23)"/><path class="cls-4" d="M122.28,192.84h65.46L239.58,355h1l51.17-162.15h64.46v228H309.69V250.33h-1L254.53,420.79H217.65L164.15,250h-1v170.8H122.28Z" transform="translate(-44.53 -23.23)"/><path class="cls-2" d="M251.24,212.81h0a24,24,0,0,1-24-24V122.27h48v66.57A24,24,0,0,1,251.24,212.81Z" transform="translate(-44.53 -23.23)"/><path class="cls-2" d="M275.22,154.66s.09-7.07,7.47-7.07,7.38,7.07,7.38,7.07V137.27H275.22Z" transform="translate(-44.53 -23.23)"/><g class="cls-5"><path class="cls-6" d="M122.28,192h65.46l51.84,162.15h1L291.75,192h64.46v228H309.69V249.46h-1L254.53,419.92H217.65l-53.5-170.8h-1v170.8H122.28Z" transform="translate(-44.53 -23.23)"/></g><path class="cls-2" d="M245.54,96.43H328a0,0,0,0,1,0,0V198.2a41.21,41.21,0,0,1-41.21,41.21h0a41.21,41.21,0,0,1-41.21-41.21V96.43A0,0,0,0,1,245.54,96.43Z"/><path class="cls-1" d="M441.28,54.16" transform="translate(-44.53 -23.23)"/><path class="cls-1" d="M80.36,97.63" transform="translate(-44.53 -23.23)"/></g></svg>